<?xml version="1.0" standalone="no"?>
<!DOCTYPE svg PUBLIC "-//W3C//DTD SVG 20010904//EN"
 "http://www.w3.org/TR/2001/REC-SVG-20010904/DTD/svg10.dtd">
<svg version="1.0" xmlns="http://www.w3.org/2000/svg"
 width="600.000000pt" height="600.000000pt" viewBox="0 0 600.000000 600.000000"
 preserveAspectRatio="xMidYMid meet">

<g transform="translate(0.000000,600.000000) scale(0.100000,-0.100000)"
fill="#000000" stroke="none">
<path d="M2795 5794 c-546 -46 -1049 -236 -1484 -562 -153 -114 -429 -390
-543 -543 -296 -395 -470 -819 -544 -1324 -25 -168 -25 -562 0 -730 74 -505
248 -929 544 -1324 114 -153 390 -429 543 -543 395 -296 819 -470 1324 -544
168 -25 562 -25 730 0 507 74 921 244 1325 545 152 113 428 389 541 541 301
404 471 818 545 1325 13 89 18 183 18 365 0 182 -5 276 -18 365 -74 507 -244
921 -545 1325 -112 151 -388 428 -542 542 -389 291 -806 465 -1294 539 -127
19 -480 33 -600 23z m455 -1127 c299 -77 552 -299 673 -587 54 -131 72 -223
72 -380 0 -157 -18 -249 -72 -380 -125 -298 -394 -524 -708 -597 -110 -25
-320 -25 -430 0 -363 84 -656 367 -753 727 -22 83 -25 115 -25 250 0 135 3
167 25 250 103 382 406 660 802 736 107 20 298 12 416 -19z m-59 -2277 c645
-66 1212 -456 1507 -1040 l63 -125 -58 -54 c-375 -353 -856 -577 -1398 -653
-116 -16 -494 -16 -610 0 -542 76 -1023 300 -1398 653 l-58 54 63 125 c261
516 725 877 1290 1004 195 44 399 56 599 36z"/>
</g>
</svg>
